<svg xmlns="http://www.w3.org/2000/svg" xmlns:xlink="http://www.w3.org/1999/xlink" version="1.1" x="0px" y="0px" viewBox="0 0 100 125" enable-background="new 0 0 100 100" xml:space="preserve"><g><polygon points="32.671,90.722 32.671,93.277 32.692,93.298 34.337,94.942 36.891,94.942 32.692,90.744  "/><polygon points="32.671,85.595 32.671,88.149 32.692,88.171 39.464,94.942 42.018,94.942 32.692,85.616  "/><polygon points="70.769,94.942 72.783,94.942 70.769,92.929  "/><polygon points="70.769,90.356 75.356,94.942 77.91,94.942 70.769,87.802  "/><polygon points="9.213,67.25 5,63.037 5,65.592 6.658,67.25  "/><polygon points="14.333,67.25 5,57.918 5,60.472 11.778,67.25  "/><polygon points="5,27.199 5,29.173 6.975,29.173  "/><polygon points="12.094,29.173 5,22.079 5,24.633 9.54,29.173  "/><path d="M22.308,84.558h11.899l10.385,10.385h2.554L36.761,84.558h2.573l10.385,10.385h2.554L41.889,84.558h2.573l10.385,10.385   h2.077v-0.477l-9.907-9.907h2.573l7.334,7.334v-2.554l-4.78-4.78h2.573l2.207,2.207v-2.207V84.21v-2.573v-2.554v-1.448h-1.448   L45.09,67.25h2.573l9.26,9.26v-2.554l-6.705-6.705h2.573l4.132,4.132v-2.554l-1.578-1.578h2.488l-0.944-0.944v-2.557l3.501,3.501   h2.576l-6.077-6.077v-2.557l8.634,8.634H68.1L56.89,56.04v-2.557L70.657,67.25H73.3l10.385,10.385h-2.573L70.769,67.292v2.554   l7.788,7.788h-2.573l-5.215-5.215v2.554l2.661,2.661h-2.573l-0.088-0.088v0.088v2.466v2.573v1.884v0.671l9.714,9.714h2.554   L72.653,84.558h2.573L85.61,94.942h2.554L77.78,84.558h2.573l10.385,10.385h2.554L82.908,84.558h2.573l9.498,9.498v-2.554   l-6.943-6.943h2.573l4.37,4.37v-2.554l-1.816-1.816H95v-6.923h-0.022v-1.516L86.11,67.25h2.573l6.296,6.296v-2.554l-3.741-3.741   h2.573l1.168,1.168V67.25H95V42.819L81.346,29.165h2.557L95,40.262v-2.576l-8.521-8.521h2.557L95,35.129v-2.576l-3.388-3.388h2.557   l0.83,0.83V4.942H69.947l0.805,0.805v2.557l-3.362-3.362h-2.576l5.938,5.938v2.557l-8.495-8.495H59.68l11.071,11.071v2.557   L57.123,4.942H32.692h-1.305l1.305,1.305v2.565l-3.87-3.87h-2.554l6.424,6.424v2.565l-8.99-8.99h-8.318v1.922l-1.922-1.922h-2.554   l4.476,4.476v2.565L8.343,4.942H5.789l9.596,9.596v2.565L5,6.719v2.554l10.385,10.385v2.565L5,11.839v2.554l10.385,10.385v2.565   L5,16.959v2.554l9.66,9.66h0.725h1.83h2.565h2.528h0.026l-0.026-0.026v-2.565l2.592,2.592h2.554l-5.146-5.146v-2.565l7.712,7.712   h2.554L22.308,18.907v-2.565l10.385,10.385v2.559l13.742,13.742h-2.557L32.692,31.842v2.576l8.609,8.609h-2.557l-6.052-6.052v2.576   l3.476,3.476h-2.557l-0.918-0.918v2.543l-1.632-1.632h-2.554l4.186,4.186v2.565l-6.752-6.752h-2.554l9.306,9.306v2.565   L22.308,44.506v-1.487h-9.161l2.238,2.238v2.565l-4.804-4.804H8.027l7.358,7.358v2.565l-9.923-9.923H5v2.093l10.385,10.385v2.565   L5,47.678v2.554l10.385,10.385v2.565L5,52.798v2.554l10.385,10.385v11.898H5v6.923h10.385v10.385h6.923V84.558z M32.692,24.172   L22.308,13.787v-2.565l10.385,10.385V24.172z M32.692,19.052L22.308,8.667V6.102l10.385,10.385V19.052z M70.751,64.768   L56.89,50.907v-2.557l13.862,13.862V64.768z M70.751,59.635L56.89,45.774v-2.557l13.862,13.862V59.635z M86.239,77.635   L75.855,67.25h2.573l10.385,10.385H86.239z M93.94,77.635h-2.573L80.982,67.25h2.573L93.94,77.635z M78.77,29.165l13.862,13.862   h-2.557L76.213,29.165H78.77z M73.637,29.165l13.862,13.862h-2.557L71.08,29.165H73.637z M56.89,7.285l13.862,13.862v2.557   L56.89,9.842V7.285z M56.89,12.418l13.862,13.862v2.557L56.89,14.975V12.418z M56.89,17.551l25.476,25.476h-2.557L56.89,20.108   V17.551z M56.89,22.684l20.343,20.343h-2.557L56.89,25.241V22.684z M56.89,29.165v-1.348l15.21,15.21h-1.348v1.209l-15.07-15.07   H56.89z M53.105,29.165l17.646,17.646v2.557L50.548,29.165H53.105z M47.972,29.165l22.779,22.779v2.557L45.415,29.165H47.972z    M42.839,29.165L56.7,43.027h-2.557L40.282,29.165H42.839z M35.149,29.165h2.557l13.862,13.862H49.01L35.149,29.165z M42.536,67.25   l10.385,10.385h-2.573L39.963,67.25H42.536z M37.409,67.25l10.385,10.385H45.22L34.836,67.25H37.409z M22.308,47.061l10.385,10.385   v2.565L22.308,49.626V47.061z M22.308,52.18l10.385,10.385v2.565L22.308,54.746V52.18z M22.308,67.25h2.265l-2.265-2.265V62.42   l4.83,4.83h2.554l-7.384-7.384V57.3l9.95,9.95h0.435v0.411l9.974,9.974h-2.573l-7.401-7.401l-0.022-0.022v2.554l0.022,0.022   l4.846,4.846h-2.573l-2.273-2.273l-0.022-0.022v2.295H22.308V67.25z"/></g><text x="0" y="115" fill="#000000" font-size="5px" font-weight="bold" font-family="'Helvetica Neue', Helvetica, Arial-Unicode, Arial, Sans-serif">Created by Wes Breazell</text><text x="0" y="120" fill="#000000" font-size="5px" font-weight="bold" font-family="'Helvetica Neue', Helvetica, Arial-Unicode, Arial, Sans-serif">from the Noun Project</text></svg>